<svg width="414" height="54" viewBox="0 0 414 54" fill="none" xmlns="http://www.w3.org/2000/svg">
<path d="M14.0677 45.657H0.0569458L6.26511 1.54216H20.2759L14.0677 45.657ZM32.6442 20.873L40.2397 45.657H24.7313L17.5978 21.3355L29.1863 1.54216H44.4514L32.6442 20.873ZM72.0965 0.544067C76.3812 0.544067 79.7156 1.2623 82.0779 2.69851C84.4514 4.13498 86.0337 5.8638 86.8371 7.88442C87.6289 9.90477 88.0301 11.9742 88.0301 14.0931C88.0301 15.31 87.9571 16.3567 87.8111 17.2337C87.3119 20.7025 86.326 24.2204 84.8285 27.7869C83.3434 31.3539 81.481 34.5794 79.2416 37.4524C77.0017 40.3253 74.433 42.6383 71.5237 44.3669C68.6266 46.1076 65.584 46.9716 62.4184 46.9716C59.631 46.9716 57.1598 46.302 54.9929 44.9752C52.8257 43.6486 50.9999 41.8223 49.5276 39.5219C48.0789 37.2089 46.9956 34.6161 46.2779 31.7431C45.535 28.8463 45.1691 25.8398 45.1691 22.7236C45.1691 20.6542 45.3034 18.8284 45.5591 17.2337C45.7787 15.4077 46.3746 13.2647 47.349 10.8184C48.3224 8.35917 50.3067 6.04621 53.3012 3.84345C56.2833 1.63988 60.5075 0.544067 65.9608 0.544067H72.0965ZM73.2642 18.5117C73.3619 17.7571 73.4105 17.2943 73.4105 17.1235C73.4105 14.0196 71.3902 12.4612 67.3486 12.4612C62.8324 12.4612 60.2643 14.4826 59.6438 18.5117C59.4613 19.7405 59.3636 21.0554 59.3636 22.431C59.3636 25.7785 59.8872 28.5909 60.9334 30.8672C61.9803 33.1191 63.1006 34.2382 64.2808 34.2382C65.1334 34.2382 66.2045 33.5447 67.4944 32.1574C68.7726 30.7695 69.9537 28.871 71.0248 26.4481C72.1201 24.0258 72.8633 21.3841 73.2642 18.5117ZM121.846 13.4596H112.364C110.49 13.4596 108.822 13.8125 107.373 14.5065C105.924 15.2123 104.999 16.8803 104.622 19.5217C104.525 20.2763 104.488 20.861 104.488 21.2622C104.488 23.3317 104.914 25.3281 105.766 27.2516C106.618 29.1745 107.836 30.745 109.405 31.9383C110.976 33.1432 112.753 33.7396 114.749 33.7396H119.74L114.542 45.657H112.254C109.114 45.657 106.192 45.0604 103.49 43.8552C100.775 42.6505 98.4258 40.9947 96.4294 38.8769C94.4332 36.7464 92.8995 34.2382 91.8284 31.39C90.7085 28.5659 90.1479 25.5466 90.1479 22.3333C90.1479 21.5304 90.2457 20.2399 90.4281 18.4872C90.8911 15.3466 91.8651 12.4979 93.3621 9.95444C94.8832 7.43437 97.1229 5.40153 100.081 3.85512C103.039 2.30953 106.74 1.54216 111.183 1.54216H119.996L121.846 13.4596ZM166.18 45.657H152.169L155.383 22.7234L146.326 32.5713L140.008 22.7234L136.795 45.657H122.783L128.992 1.54216H141.786L149.065 12.9243L159.583 1.54216H172.389L166.18 45.657ZM270.105 14.0196C263.033 15.6876 258.955 20.5323 257.835 28.5662C257.689 29.735 257.616 31.463 257.616 33.7396H267.354L270.105 14.0196ZM281.439 33.7396H286.185L281.086 45.657H241.17L239.357 33.7396H243.459C243.459 32.2421 243.556 30.8542 243.739 29.5645C244.104 26.9959 244.75 24.4522 245.687 21.9324C246.624 19.4123 247.878 17.0141 249.436 14.7378C250.995 12.4498 252.82 10.4284 254.902 8.67622C257.215 6.72807 259.625 5.23107 262.132 4.18357C264.64 3.13689 267.184 2.43114 269.765 2.07745C272.345 1.72457 275.194 1.54216 278.298 1.54216H285.967L281.439 33.7396ZM319.21 45.657H310.714C307.585 45.657 304.652 45.0604 301.95 43.8552C299.235 42.6505 296.886 40.9947 294.889 38.8769C292.893 36.7464 291.359 34.2513 290.288 31.39C289.168 28.5659 288.608 25.5466 288.608 22.3333C288.608 21.4327 288.717 20.1428 288.924 18.4872C289.569 14.3483 290.75 10.9528 292.455 8.3228C294.17 5.68166 296.593 3.72185 299.735 2.45529C302.875 1.17734 306.855 0.544339 311.688 0.544339H314.609C318.674 0.544339 321.828 1.04298 324.055 2.0294C326.294 3.01582 327.792 4.2327 328.571 5.65696C329.338 7.09343 329.727 8.56628 329.727 10.1005C329.727 10.4775 329.715 10.8307 329.678 11.1594C329.642 11.4759 329.605 11.7677 329.569 12.0359C329.533 12.291 329.484 12.5348 329.448 12.7416C329.034 15.8095 327.914 18.5852 326.051 21.0687C324.201 23.5638 321.985 25.7301 319.417 27.58C316.849 29.4304 313.915 31.2076 310.616 32.9239C312.99 33.4722 315.741 33.7399 318.845 33.7399H324.408L319.21 45.657ZM310.86 12.4612C306.368 12.4612 303.8 14.6401 303.155 19.0106C303.106 19.4606 303.082 20.1181 303.082 21.0068C303.179 22.8328 303.276 23.9161 303.374 24.2684C305.893 23.0638 308.389 21.5787 310.848 19.8135C313.307 18.0364 314.67 16.3447 314.926 14.7012C314.926 13.727 314.548 13.1184 313.781 12.8513C313.05 12.5953 312.077 12.4612 310.86 12.4612ZM367.451 45.657H353.392L356.094 26.5814H346.599L344.785 39.2417C344.785 39.6435 344.737 40.2515 344.639 41.0555C344.566 41.847 344.518 42.4068 344.494 42.7352C344.494 43.4532 344.567 44.0984 344.712 44.6948L344.932 45.6567L331.322 53.2523L330.97 52.0715C330.324 50.4645 330.008 48.5658 330.008 46.4111C330.008 44.8164 330.105 43.4412 330.287 42.3088L336.07 1.54162H350.106L348.28 14.5912H357.774L359.637 1.54162H373.623L367.451 45.657ZM414 13.7394H401.011L396.544 45.657H382.521L386.976 13.7394H373.951L379.161 1.54216H412.357L414 13.7394Z" fill="#393185"/>
</svg>
