<svg width="380" height="17" viewBox="0 0 380 17" fill="none" xmlns="http://www.w3.org/2000/svg">
<path d="M11.5517 6.48459L8.50094 6.91483C8.39942 6.43383 8.16599 6.07254 7.80063 5.82743C7.43526 5.5853 6.96459 5.46288 6.38424 5.46288C5.61253 5.46288 4.99445 5.67488 4.5349 6.09914C4.07562 6.52313 3.84598 7.23133 3.84598 8.22617C3.84598 9.33121 4.07942 10.1111 4.5463 10.5682C5.01318 11.025 5.63859 11.2522 6.42197 11.2522C7.00937 11.2522 7.49173 11.1176 7.86442 10.8521C8.24091 10.5861 8.50475 10.129 8.6592 9.47778L11.7099 9.89011C11.3937 11.0014 10.7868 11.841 9.89073 12.4083C8.99416 12.9759 7.79276 13.2595 6.28218 13.2595C4.57263 13.2595 3.20537 12.8293 2.18855 11.9721C1.16793 11.1119 0.659241 9.92268 0.659241 8.40206C0.659241 6.86352 1.17145 5.6689 2.19235 4.81142C3.2127 3.95393 4.59516 3.52695 6.33891 3.52695C7.76235 3.52695 8.89617 3.77179 9.74009 4.25876C10.5799 4.74573 11.1823 5.48649 11.5514 6.48432L11.5517 6.48459ZM20.6852 10.0869L23.7807 10.4992C23.3852 11.3985 22.7566 12.0826 21.9015 12.5546C21.0427 13.0236 19.9694 13.2595 18.6852 13.2595C16.6477 13.2595 15.1372 12.7308 14.1616 11.6732C13.3899 10.8247 13.0017 9.7552 13.0017 8.46205C13.0017 6.92053 13.5101 5.71071 14.5234 4.83829C15.5365 3.96316 16.8207 3.52722 18.3725 3.52722C20.1127 3.52722 21.4868 3.98406 22.4965 4.89828C23.5022 5.8125 23.9843 7.21341 23.939 9.1013H16.1882C16.2107 9.83012 16.4591 10.3977 16.9377 10.8041C17.4121 11.2104 18.0074 11.4134 18.7153 11.4134C19.2015 11.4134 19.6078 11.3089 19.9355 11.0997C20.2672 10.8904 20.5158 10.5532 20.6855 10.0869H20.6852ZM20.8657 7.59561C20.8429 6.88171 20.6133 6.33801 20.1727 5.96749C19.7319 5.59399 19.1969 5.40886 18.5641 5.40886C17.8899 5.40886 17.3329 5.60593 16.8923 5.99735C16.4512 6.3885 16.2365 6.92324 16.2441 7.59533H20.8657V7.59561ZM24.775 3.72402H35.3735V5.71369H31.6222V13.0264H28.5261V5.71369H24.775V3.72402ZM37.3092 3.72402H40.4052V7.59561H43.516C44.7366 7.59561 45.6704 7.66428 46.3259 7.80489C46.9815 7.94522 47.5238 8.24679 47.9565 8.70987C48.39 9.17295 48.6082 9.71069 48.6082 10.3231C48.6082 11.2223 48.2203 11.8974 47.4445 12.3483C46.6688 12.7994 45.5086 13.0264 43.957 13.0264H37.3094V3.72402H37.3092ZM40.4052 11.449H43.3013C44.2054 11.449 44.7855 11.3326 45.0417 11.1026C45.2939 10.8695 45.422 10.5948 45.422 10.275C45.422 9.83012 45.2035 9.52258 44.7627 9.35211C44.3262 9.18463 43.5464 9.1013 42.428 9.1013H40.4055V11.449H40.4052ZM57.2748 3.72402H60.3704V7.52367C60.8867 7.4759 61.2517 7.35049 61.4662 7.14718C61.6774 6.94414 61.9369 6.49897 62.2387 5.81222C62.6377 4.89502 63.0707 4.31278 63.5454 4.05572C64.0161 3.79866 64.6337 3.67027 65.4024 3.67027C65.6396 3.67027 66.0462 3.6852 66.6301 3.71533L66.6415 5.33747C65.8201 5.33747 65.2965 5.39719 65.0707 5.51989C64.841 5.64801 64.5921 6.03074 64.3288 6.66673C63.9673 7.52123 63.4437 8.05 62.7659 8.24707C63.745 8.46232 64.5734 9.14011 65.2517 10.2785C65.2854 10.3383 65.3269 10.398 65.3723 10.4637L67.1046 13.0266H63.7715L62.2273 10.329C61.9111 9.78533 61.6361 9.43598 61.4024 9.28072C61.1728 9.12545 60.8264 9.04755 60.3704 9.04755V13.0266H57.2748V3.72429V3.72402ZM69.8315 3.72402H80.2039V13.0264H77.1078V5.71369H72.9048V9.89879C72.9048 10.9623 72.7506 11.709 72.4417 12.1393C72.1287 12.5695 71.7859 12.8499 71.4097 12.9846C71.0367 13.1189 70.4303 13.1876 69.5978 13.1876C69.1046 13.1876 68.4493 13.1339 67.6396 13.0323V11.2251C67.7072 11.2251 67.8804 11.2308 68.1592 11.243C68.4833 11.2609 68.7357 11.2698 68.9124 11.2698C69.3342 11.2698 69.5905 11.1594 69.6882 10.9414C69.7824 10.7202 69.8315 10.1108 69.8315 9.11025V3.72429V3.72402ZM83.2617 3.72402H86.2446V9.56981L91.0127 3.72402H94.0637V13.0264H91.0808V7.09669L86.2448 13.0264H83.2619V3.72402H83.2617ZM97.1071 3.72402H100.203V7.12926H104.677V3.72402H107.773V13.0264H104.677V9.11921H100.203V13.0264H97.1071V3.72402ZM110.801 3.72402H113.784V9.56981L118.552 3.72402H121.603V13.0264H118.62V7.09669L113.784 13.0264H110.801V3.72402H110.801ZM124.646 3.72402H127.742V7.52367C128.258 7.4759 128.624 7.35049 128.838 7.14718C129.049 6.94414 129.309 6.49897 129.61 5.81222C130.01 4.89502 130.442 4.31278 130.917 4.05572C131.388 3.79866 132.005 3.67027 132.774 3.67027C133.012 3.67027 133.418 3.6852 134.002 3.71533L134.013 5.33747C133.192 5.33747 132.668 5.39719 132.442 5.51989C132.213 5.64801 131.964 6.03074 131.701 6.66673C131.339 7.52123 130.815 8.05 130.138 8.24707C131.117 8.46232 131.945 9.14011 132.624 10.2785C132.657 10.3383 132.699 10.398 132.744 10.4637L134.476 13.0266H131.143L129.599 10.329C129.283 9.78533 129.008 9.43598 128.774 9.28072C128.545 9.12545 128.198 9.04755 127.742 9.04755V13.0266H124.646V3.72429V3.72402ZM141.647 8.26173C141.647 7.44333 141.9 6.65152 142.408 5.88687C142.917 5.11896 143.636 4.53645 144.566 4.13308C145.496 3.72999 146.533 3.52695 147.681 3.52695C149.455 3.52695 150.905 3.98379 152.039 4.89801C153.173 5.81494 153.737 6.96803 153.737 8.36623C153.737 9.7761 153.165 10.9441 152.024 11.87C150.879 12.7962 149.44 13.2593 147.704 13.2593C146.63 13.2593 145.606 13.0652 144.63 12.6797C143.659 12.2945 142.917 11.7299 142.408 10.9832C141.9 10.2395 141.648 9.33121 141.648 8.26173H141.647ZM144.834 8.3931C144.834 9.31628 145.109 10.0239 145.659 10.5142C146.212 11.0071 146.89 11.2519 147.7 11.2519C148.506 11.2519 149.184 11.0071 149.73 10.5142C150.276 10.0242 150.551 9.31031 150.551 8.37519C150.551 7.46423 150.276 6.76201 149.73 6.27205C149.184 5.77938 148.506 5.53427 147.7 5.53427C146.891 5.53427 146.212 5.77938 145.659 6.27205C145.109 6.76201 144.834 7.46993 144.834 8.3931ZM166.09 6.48432L163.04 6.91455C162.938 6.43356 162.705 6.07227 162.339 5.82715C161.974 5.58503 161.503 5.46261 160.923 5.46261C160.151 5.46261 159.533 5.6746 159.074 6.09887C158.614 6.52286 158.385 7.23106 158.385 8.2259C158.385 9.33094 158.618 10.1108 159.085 10.5679C159.552 11.0247 160.177 11.2519 160.961 11.2519C161.548 11.2519 162.031 11.1173 162.403 10.8518C162.78 10.5858 163.044 10.1287 163.198 9.47751L166.249 9.88984C165.933 11.0011 165.326 11.8407 164.43 12.408C163.533 12.9756 162.332 13.2593 160.821 13.2593C159.111 13.2593 157.744 12.829 156.727 11.9718C155.707 11.1116 155.198 9.92241 155.198 8.40179C155.198 6.86325 155.71 5.66863 156.731 4.81115C157.752 3.95366 159.134 3.52668 160.878 3.52668C162.301 3.52668 163.435 3.77152 164.279 4.25849C165.119 4.74545 165.721 5.48622 166.09 6.48404L166.09 6.48432ZM168.309 3.72402H171.405V7.12926H175.879V3.72402H178.975V13.0264H175.879V9.11921H171.405V13.0264H168.309V3.72402ZM181.37 8.26173C181.37 7.44333 181.623 6.65152 182.131 5.88687C182.64 5.11896 183.359 4.53645 184.289 4.13308C185.219 3.72999 186.255 3.52695 187.404 3.52695C189.178 3.52695 190.628 3.98379 191.762 4.89801C192.895 5.81494 193.46 6.96803 193.46 8.36623C193.46 9.7761 192.888 10.9441 191.746 11.87C190.601 12.7962 189.163 13.2593 187.427 13.2593C186.353 13.2593 185.329 13.0652 184.353 12.6797C183.381 12.2945 182.64 11.7299 182.131 10.9832C181.623 10.2395 181.37 9.33121 181.37 8.26173H181.37ZM184.556 8.3931C184.556 9.31628 184.832 10.0239 185.381 10.5142C185.935 11.0071 186.613 11.2519 187.423 11.2519C188.229 11.2519 188.907 11.0071 189.453 10.5142C189.999 10.0242 190.274 9.31031 190.274 8.37519C190.274 7.46423 189.999 6.76201 189.453 6.27205C188.907 5.77938 188.229 5.53427 187.423 5.53427C186.613 5.53427 185.935 5.77938 185.381 6.27205C184.832 6.76201 184.556 7.46993 184.556 8.3931ZM195.919 3.72402H202.714C204.108 3.72402 205.147 3.92434 205.84 4.32743C206.533 4.7308 206.879 5.34019 206.879 6.15288C206.879 6.6727 206.691 7.12655 206.311 7.512C205.934 7.89745 205.456 8.1545 204.883 8.28289C205.69 8.44115 206.292 8.73376 206.691 9.16698C207.087 9.59994 207.286 10.072 207.286 10.5858C207.286 11.3087 206.951 11.8972 206.281 12.348C205.61 12.7992 204.62 13.0261 203.309 13.0261H195.92V3.72375L195.919 3.72402ZM199.016 7.59561H201.027C201.999 7.59561 202.699 7.50005 203.132 7.3057C203.565 7.11162 203.783 6.80679 203.783 6.39148C203.783 5.99735 203.58 5.71939 203.177 5.55219C202.774 5.38471 202.059 5.30137 201.027 5.30137H199.016V7.59561ZM199.016 11.449H201.479C202.368 11.449 203.015 11.3654 203.422 11.1952C203.829 11.025 204.032 10.7232 204.032 10.2842C204.032 9.82713 203.799 9.51334 203.332 9.34288C202.869 9.1697 201.961 9.08311 200.613 9.08311H199.016V11.449H199.016ZM211.795 6.59181L208.993 6.19741C209.309 5.28943 209.855 4.61707 210.627 4.18086C211.399 3.74492 212.548 3.52695 214.069 3.52695C215.452 3.52695 216.484 3.65507 217.161 3.91539C217.836 4.17516 218.314 4.5036 218.589 4.90425C218.864 5.30436 219.003 6.03617 219.003 7.10565L218.958 9.97344C218.958 10.7891 219.007 11.3923 219.105 11.7807C219.203 12.1691 219.387 12.5842 219.658 13.0264H216.585C216.506 12.8651 216.404 12.6262 216.288 12.3095C216.239 12.1629 216.201 12.0673 216.178 12.0226C215.651 12.4349 215.086 12.7424 214.484 12.9485C213.881 13.1547 213.24 13.2593 212.559 13.2593C211.357 13.2593 210.408 12.9995 209.715 12.4797C209.022 11.9628 208.676 11.3057 208.676 10.5112C208.676 9.98837 208.834 9.51932 209.151 9.107C209.467 8.69793 209.907 8.38116 210.48 8.16319C211.049 7.94522 211.87 7.75386 212.943 7.58964C214.389 7.37438 215.395 7.17134 215.952 6.98621V6.73812C215.952 6.26011 215.806 5.91972 215.512 5.71369C215.214 5.51038 214.657 5.40886 213.839 5.40886C213.286 5.40886 212.857 5.49545 212.548 5.67162C212.235 5.84507 211.987 6.15262 211.795 6.59181ZM215.953 8.58121C215.557 8.68571 214.928 8.8114 214.066 8.9577C213.207 9.10401 212.642 9.2476 212.379 9.38495C211.976 9.61487 211.772 9.90151 211.772 10.2514C211.772 10.5978 211.934 10.8936 212.258 11.1444C212.582 11.3953 212.992 11.5207 213.493 11.5207C214.051 11.5207 214.586 11.3744 215.094 11.0845C215.466 10.8605 215.715 10.5918 215.832 10.269C215.911 10.0598 215.953 9.65965 215.953 9.07116V8.58121ZM221.922 3.72402H225.018V7.12926H229.492V3.72402H232.588V13.0264H229.492V9.11921H225.018V13.0264H221.922V3.72402ZM238.012 6.59181L235.21 6.19741C235.526 5.28943 236.072 4.61707 236.844 4.18086C237.616 3.74492 238.765 3.52695 240.287 3.52695C241.669 3.52695 242.701 3.65507 243.379 3.91539C244.053 4.17516 244.531 4.5036 244.806 4.90425C245.081 5.30436 245.221 6.03617 245.221 7.10565L245.175 9.97344C245.175 10.7891 245.224 11.3923 245.322 11.7807C245.42 12.1691 245.604 12.5842 245.876 13.0264H242.802C242.723 12.8651 242.621 12.6262 242.505 12.3095C242.456 12.1629 242.418 12.0673 242.395 12.0226C241.868 12.4349 241.303 12.7424 240.701 12.9485C240.098 13.1547 239.458 13.2593 238.776 13.2593C237.575 13.2593 236.626 12.9995 235.932 12.4797C235.24 11.9628 234.893 11.3057 234.893 10.5112C234.893 9.98837 235.052 9.51932 235.368 9.107C235.684 8.69793 236.125 8.38116 236.697 8.16319C237.266 7.94522 238.087 7.75386 239.16 7.58964C240.607 7.37438 241.612 7.17134 242.17 6.98621V6.73812C242.17 6.26011 242.023 5.91972 241.729 5.71369C241.432 5.51038 240.874 5.40886 240.057 5.40886C239.503 5.40886 239.074 5.49545 238.765 5.67162C238.452 5.84507 238.204 6.15262 238.012 6.59181ZM242.17 8.58121C241.774 8.68571 241.146 8.8114 240.283 8.9577C239.424 9.10401 238.859 9.2476 238.596 9.38495C238.193 9.61487 237.99 9.90151 237.99 10.2514C237.99 10.5978 238.151 10.8936 238.475 11.1444C238.799 11.3953 239.21 11.5207 239.71 11.5207C240.268 11.5207 240.803 11.3744 241.311 11.0845C241.684 10.8605 241.933 10.5918 242.049 10.269C242.128 10.0598 242.17 9.65965 242.17 9.07116V8.58121ZM254.576 3.72402H261.371C262.764 3.72402 263.804 3.92434 264.497 4.32743C265.19 4.7308 265.536 5.34019 265.536 6.15288C265.536 6.6727 265.348 7.12655 264.968 7.512C264.591 7.89745 264.112 8.1545 263.54 8.28289C264.346 8.44115 264.949 8.73376 265.348 9.16698C265.743 9.59994 265.943 10.072 265.943 10.5858C265.943 11.3087 265.608 11.8972 264.937 12.348C264.267 12.7992 263.276 13.0261 261.966 13.0261H254.576V3.72375L254.576 3.72402ZM257.672 7.59561H259.683C260.655 7.59561 261.355 7.50005 261.789 7.3057C262.222 7.11162 262.44 6.80679 262.44 6.39148C262.44 5.99735 262.237 5.71939 261.834 5.55219C261.431 5.38471 260.715 5.30137 259.683 5.30137H257.672V7.59561H257.672ZM257.672 11.449H260.136C261.024 11.449 261.672 11.3654 262.079 11.1952C262.486 11.025 262.689 10.7232 262.689 10.2842C262.689 9.82713 262.455 9.51334 261.988 9.34288C261.525 9.1697 260.618 9.08311 259.269 9.08311H257.672V11.449H257.672ZM284.53 10.75V13.0264H273.66C273.777 12.1599 274.131 11.3415 274.719 10.5679C275.306 9.79402 276.47 8.76634 278.202 7.48486C279.6 6.45147 280.454 5.74925 280.771 5.38199C281.197 4.87412 281.411 4.37222 281.411 3.87331C281.411 3.32391 281.227 2.90263 280.853 2.60676C280.484 2.31116 279.972 2.16485 279.32 2.16485C278.673 2.16485 278.16 2.32012 277.776 2.63065C277.396 2.93846 277.178 3.45203 277.117 4.1719L274.022 3.92706C274.206 2.57093 274.782 1.597 275.754 1.00552C276.726 0.417578 277.938 0.121704 279.396 0.121704C280.993 0.121704 282.247 0.465353 283.162 1.14912C284.074 1.83342 284.529 2.68466 284.529 3.70312C284.529 4.28265 284.397 4.83259 284.138 5.35837C283.878 5.8809 283.464 6.42786 282.895 7.00114C282.522 7.38388 281.84 7.93029 280.861 8.64419C279.878 9.35808 279.257 9.83039 278.997 10.0663C278.733 10.2992 278.522 10.5294 278.36 10.7503H284.529L284.53 10.75ZM291.866 0.121704C293.433 0.121704 294.657 0.566597 295.543 1.45666C296.593 2.50823 297.12 4.25578 297.12 6.69333C297.12 9.12817 296.589 10.8787 295.531 11.9419C294.653 12.8203 293.433 13.2595 291.866 13.2595C290.292 13.2595 289.023 12.7785 288.058 11.8168C287.094 10.8548 286.612 9.13713 286.612 6.66944C286.612 4.24682 287.144 2.50226 288.202 1.43902C289.079 0.560899 290.3 0.121704 291.866 0.121704ZM291.866 2.16485C291.497 2.16485 291.166 2.26013 290.88 2.4515C290.59 2.63961 290.364 2.98027 290.206 3.4732C289.995 4.10974 289.89 5.18493 289.89 6.69333C289.89 8.205 289.983 9.24163 290.172 9.80623C290.36 10.3706 290.597 10.7471 290.884 10.9354C291.17 11.1235 291.498 11.2164 291.866 11.2164C292.236 11.2164 292.567 11.1208 292.857 10.9295C293.143 10.7413 293.369 10.4007 293.528 9.90775C293.738 9.27746 293.844 8.205 293.844 6.69333C293.844 5.18493 293.75 4.14828 293.561 3.58396C293.373 3.01935 293.136 2.63988 292.849 2.45177C292.563 2.2604 292.235 2.16512 291.866 2.16512V2.16485ZM304.434 0.121704C306.002 0.121704 307.225 0.566597 308.11 1.45666C309.161 2.50823 309.688 4.25578 309.688 6.69333C309.688 9.12817 309.158 10.8787 308.099 11.9419C307.221 12.8203 306.001 13.2595 304.434 13.2595C302.86 13.2595 301.591 12.7785 300.626 11.8168C299.663 10.8548 299.18 9.13713 299.18 6.66944C299.18 4.24682 299.711 2.50226 300.77 1.43902C301.647 0.560899 302.868 0.121704 304.434 0.121704ZM304.434 2.16485C304.065 2.16485 303.734 2.26013 303.448 2.4515C303.158 2.63961 302.932 2.98027 302.774 3.4732C302.563 4.10974 302.457 5.18493 302.457 6.69333C302.457 8.205 302.551 9.24163 302.74 9.80623C302.928 10.3706 303.165 10.7471 303.452 10.9354C303.738 11.1235 304.066 11.2164 304.434 11.2164C304.804 11.2164 305.135 11.1208 305.425 10.9295C305.711 10.7413 305.937 10.4007 306.095 9.90775C306.306 9.27746 306.412 8.205 306.412 6.69333C306.412 5.18493 306.318 4.14828 306.129 3.58396C305.941 3.01935 305.703 2.63988 305.417 2.45177C305.131 2.2604 304.803 2.16512 304.434 2.16512V2.16485ZM311.794 9.73131L314.89 9.47751C314.98 10.0332 315.24 10.4753 315.673 10.8008C316.11 11.1265 316.611 11.2878 317.18 11.2878C317.827 11.2878 318.377 11.079 318.826 10.6577C319.274 10.2365 319.5 9.60319 319.5 8.75765C319.5 7.96313 319.278 7.36868 318.83 6.97129C318.385 6.5739 317.805 6.37655 317.089 6.37655C316.197 6.37655 315.395 6.68736 314.686 7.30869L312.178 7.02204L313.76 0.354876H321.963V2.64884H316.114L315.624 4.83259C316.314 4.56061 317.022 4.42325 317.745 4.42325C319.124 4.42325 320.291 4.82065 321.248 5.61842C322.208 6.41293 322.687 7.44631 322.687 8.7191C322.687 9.77963 322.298 10.7237 321.526 11.5573C320.472 12.6925 319.011 13.2601 317.142 13.2601C315.647 13.2601 314.427 12.9403 313.485 12.304C312.54 11.6648 311.979 10.8103 311.794 9.73186L311.794 9.73131ZM331.138 3.72402H339.069V5.71369H334.233V13.0264H331.138V3.72402H331.138ZM339.664 8.26173C339.664 7.44333 339.917 6.65152 340.425 5.88687C340.933 5.11896 341.653 4.53645 342.583 4.13308C343.513 3.72999 344.549 3.52695 345.698 3.52695C347.472 3.52695 348.922 3.98379 350.056 4.89801C351.189 5.81494 351.754 6.96803 351.754 8.36623C351.754 9.7761 351.182 10.9441 350.04 11.87C348.895 12.7962 347.457 13.2593 345.721 13.2593C344.647 13.2593 343.623 13.0652 342.647 12.6797C341.675 12.2945 340.934 11.7299 340.425 10.9832C339.917 10.2395 339.664 9.33121 339.664 8.26173H339.664ZM342.85 8.3931C342.85 9.31628 343.125 10.0239 343.675 10.5142C344.229 11.0071 344.907 11.2519 345.717 11.2519C346.523 11.2519 347.201 11.0071 347.747 10.5142C348.293 10.0242 348.568 9.31031 348.568 8.37519C348.568 7.46423 348.293 6.76201 347.747 6.27205C347.201 5.77938 346.523 5.53427 345.717 5.53427C344.907 5.53427 344.229 5.77938 343.675 6.27205C343.125 6.76201 342.85 7.46993 342.85 8.3931ZM363.588 13.0264H354.707V15.4818H352.198V11.0188H353.464C353.991 10.5497 354.425 9.82089 354.771 8.82632C355.114 7.83447 355.321 6.13171 355.385 3.72402H364.853V11.0188H366.119V15.4818H363.588V13.0264H363.588ZM361.78 11.0188L361.791 5.74925H358.028C357.904 8.32117 357.392 10.0777 356.492 11.0188H361.78H361.78ZM367.023 3.72402H370.322L373.135 10.3228L375.881 3.72402H379.09L374.955 12.6767L374.209 14.2926C373.934 14.8334 373.674 15.2457 373.425 15.5323C373.181 15.816 372.894 16.0491 372.574 16.2256C372.254 16.4047 371.859 16.5421 371.388 16.6406C370.921 16.7391 370.39 16.7902 369.798 16.7902C369.203 16.7902 368.615 16.7391 368.039 16.6406L367.768 14.7226C368.254 14.7975 368.694 14.8361 369.086 14.8361C369.81 14.8361 370.344 14.6689 370.691 14.3312C371.037 13.9935 371.305 13.5633 371.489 13.0437L367.022 3.72347L367.023 3.72402Z" fill="#00A0E3"/>
</svg>
