<svg width="1917.500000" height="960.196777" viewBox="0 0 1917.5 960.197" preserveAspectRatio="none" fill="none"
  xmlns="http://www.w3.org/2000/svg" xmlns:xlink="http://www.w3.org/1999/xlink">
  <desc>
    Created with Pixso.
  </desc>
  <defs>
    <linearGradient id="paint_linear_8_3_0" x1="1917.000488" y1="480.137329" x2="0.500000" y2="480.137329"
      gradientUnits="userSpaceOnUse">
      <stop stop-color="#9ED5FE" />
      <stop offset="0.263848" stop-color="#9ED5FE" />
      <stop offset="1.000000" stop-color="#9ED5FE" stop-opacity="0.000000" />
    </linearGradient>
  </defs>
  <path id="APP2"
    d="M610.5 35.1375C368.781 55.8503 233.834 75.2808 0.5 142.137L0.5 866.137C145.842 889.418 227.912 894.173 373.5 892.637C764.766 893.881 988.732 900.899 1389 919.637C1594.74 928.878 1712.5 936.637 1917 959.637L1917 0.637451C1716.89 49.7141 1599.83 63.2844 1389 76.1375C1085.59 75.2356 914.379 70.4927 610.5 35.1375Z"
    fill-rule="evenodd" fill="url(#paint_linear_8_3_0)" />
  <path id="APP2"
    d="M610.5 35.1375C914.379 70.4927 1085.59 75.2356 1389 76.1375C1599.83 63.2844 1716.89 49.7141 1917 0.637451L1917 959.637C1712.5 936.637 1594.74 928.878 1389 919.637C988.732 900.899 764.766 893.881 373.5 892.637C227.912 894.173 145.842 889.418 0.5 866.137L0.5 142.137C233.834 75.2808 368.781 55.8503 610.5 35.1375Z"
    stroke="none" />
</svg>